<?xml version="1.0" encoding="utf-8" standalone="no"?>
<!DOCTYPE svg PUBLIC "-//W3C//DTD SVG 1.1//EN" "http://www.w3.org/Graphics/SVG/1.1/DTD/svg11.dtd">

<svg width="210mm" height="297mm" viewBox="0 0 210 297" xmlns="http://www.w3.org/2000/svg" xmlns:xlink="http://www.w3.org/1999/xlink" version="1.1" style="stroke:black; fill:none; stroke-width:0.5pt; stroke-linejoin:round; text-anchor:middle" font-family="Helvetica, Arial, FreeSans, Sans, sans, sans-serif">

<g>

<circle cx="10.0" cy="287.0" r="5.0" fill="black" stroke="none" />

<circle cx="30.0" cy="287.0" r="5.0" fill="black" stroke="none" />

<circle cx="50.0" cy="287.0" r="5.0" fill="black" stroke="none" />

<circle cx="70.0" cy="287.0" r="5.0" fill="black" stroke="none" />

<circle cx="90.0" cy="287.0" r="5.0" fill="black" stroke="none" />

<circle cx="20.0" cy="277.0" r="5.0" fill="black" stroke="none" />

<circle cx="40.0" cy="277.0" r="5.0" fill="black" stroke="none" />

<circle cx="60.0" cy="277.0" r="5.0" fill="black" stroke="none" />

<circle cx="80.0" cy="277.0" r="5.0" fill="black" stroke="none" />

<circle cx="100.0" cy="277.0" r="5.0" fill="black" stroke="none" />

<circle cx="10.0" cy="267.0" r="5.0" fill="black" stroke="none" />

<circle cx="30.0" cy="267.0" r="5.0" fill="black" stroke="none" />

<circle cx="50.0" cy="267.0" r="5.0" fill="black" stroke="none" />

<circle cx="70.0" cy="267.0" r="5.0" fill="black" stroke="none" />

<circle cx="90.0" cy="267.0" r="5.0" fill="black" stroke="none" />

<circle cx="20.0" cy="257.0" r="5.0" fill="black" stroke="none" />

<circle cx="40.0" cy="257.0" r="5.0" fill="black" stroke="none" />

<circle cx="60.0" cy="257.0" r="5.0" fill="black" stroke="none" />

<circle cx="80.0" cy="257.0" r="5.0" fill="black" stroke="none" />

<circle cx="100.0" cy="257.0" r="5.0" fill="black" stroke="none" />

<circle cx="10.0" cy="247.0" r="5.0" fill="black" stroke="none" />

<circle cx="30.0" cy="247.0" r="5.0" fill="black" stroke="none" />

<circle cx="50.0" cy="247.0" r="5.0" fill="black" stroke="none" />

<circle cx="70.0" cy="247.0" r="5.0" fill="black" stroke="none" />

<circle cx="90.0" cy="247.0" r="5.0" fill="black" stroke="none" />

<circle cx="20.0" cy="237.0" r="5.0" fill="black" stroke="none" />

<circle cx="40.0" cy="237.0" r="5.0" fill="black" stroke="none" />

<circle cx="60.0" cy="237.0" r="5.0" fill="black" stroke="none" />

<circle cx="80.0" cy="237.0" r="5.0" fill="black" stroke="none" />

<circle cx="100.0" cy="237.0" r="5.0" fill="black" stroke="none" />

<circle cx="10.0" cy="227.0" r="5.0" fill="black" stroke="none" />

<circle cx="30.0" cy="227.0" r="5.0" fill="black" stroke="none" />

<circle cx="50.0" cy="227.0" r="5.0" fill="black" stroke="none" />

<circle cx="70.0" cy="227.0" r="5.0" fill="black" stroke="none" />

<circle cx="90.0" cy="227.0" r="5.0" fill="black" stroke="none" />

</g>

</svg>

