<?xml version="1.0" encoding="utf-8" standalone="no"?>
<!DOCTYPE svg PUBLIC "-//W3C//DTD SVG 1.1//EN" "http://www.w3.org/Graphics/SVG/1.1/DTD/svg11.dtd">

<svg width="210mm" height="297mm" viewBox="0 0 210 297" xmlns="http://www.w3.org/2000/svg" xmlns:xlink="http://www.w3.org/1999/xlink" version="1.1" style="stroke:black; fill:none; stroke-width:0.5pt; stroke-linejoin:round; text-anchor:middle" font-family="Helvetica, Arial, FreeSans, Sans, sans, sans-serif">

<g>

<circle cx="15.0" cy="15.0" r="3.0" fill="black" stroke="none" />

<circle cx="15.0" cy="30.0" r="3.0" fill="black" stroke="none" />

<circle cx="15.0" cy="45.0" r="3.0" fill="black" stroke="none" />

<circle cx="15.0" cy="60.0" r="3.0" fill="black" stroke="none" />

<circle cx="15.0" cy="75.0" r="3.0" fill="black" stroke="none" />

<circle cx="15.0" cy="90.0" r="3.0" fill="black" stroke="none" />

<circle cx="15.0" cy="105.0" r="3.0" fill="black" stroke="none" />

<circle cx="30.0" cy="15.0" r="3.0" fill="black" stroke="none" />

<circle cx="30.0" cy="30.0" r="3.0" fill="black" stroke="none" />

<circle cx="30.0" cy="45.0" r="3.0" fill="black" stroke="none" />

<circle cx="30.0" cy="60.0" r="3.0" fill="black" stroke="none" />

<circle cx="30.0" cy="75.0" r="3.0" fill="black" stroke="none" />

<circle cx="30.0" cy="90.0" r="3.0" fill="black" stroke="none" />

<circle cx="30.0" cy="105.0" r="3.0" fill="black" stroke="none" />

<circle cx="45.0" cy="15.0" r="3.0" fill="black" stroke="none" />

<circle cx="45.0" cy="30.0" r="3.0" fill="black" stroke="none" />

<circle cx="45.0" cy="45.0" r="3.0" fill="black" stroke="none" />

<circle cx="45.0" cy="60.0" r="3.0" fill="black" stroke="none" />

<circle cx="45.0" cy="75.0" r="3.0" fill="black" stroke="none" />

<circle cx="45.0" cy="90.0" r="3.0" fill="black" stroke="none" />

<circle cx="45.0" cy="105.0" r="3.0" fill="black" stroke="none" />

<circle cx="60.0" cy="15.0" r="3.0" fill="black" stroke="none" />

<circle cx="60.0" cy="30.0" r="3.0" fill="black" stroke="none" />

<circle cx="60.0" cy="45.0" r="3.0" fill="black" stroke="none" />

<circle cx="60.0" cy="60.0" r="3.0" fill="black" stroke="none" />

<circle cx="60.0" cy="75.0" r="3.0" fill="black" stroke="none" />

<circle cx="60.0" cy="90.0" r="3.0" fill="black" stroke="none" />

<circle cx="60.0" cy="105.0" r="3.0" fill="black" stroke="none" />

<circle cx="75.0" cy="15.0" r="3.0" fill="black" stroke="none" />

<circle cx="75.0" cy="30.0" r="3.0" fill="black" stroke="none" />

<circle cx="75.0" cy="45.0" r="3.0" fill="black" stroke="none" />

<circle cx="75.0" cy="60.0" r="3.0" fill="black" stroke="none" />

<circle cx="75.0" cy="75.0" r="3.0" fill="black" stroke="none" />

<circle cx="75.0" cy="90.0" r="3.0" fill="black" stroke="none" />

<circle cx="75.0" cy="105.0" r="3.0" fill="black" stroke="none" />

</g>

</svg>

